PathFileType	4	(X/Y/Z)	/Users/mathieubourgeois/Desktop/Analyse/Traitement/Sujet_02/Data/Transformed_Sujet_02_velo_80.trc
DataRate	CameraRate	NumFrames	NumMarkers	Units	OrigDataRate	OrigDataStartFrame	OrigNumFrames
120.000000	120.000000	5	36	mm	120.000000	1414	1886
Frame#	Time	RFHD			RANE			STRN			LANI			LKNE			T10			RHUM			RWRB			C7			LFWT			LTOE			RTOE			LWRA			LBWT			RBWT			RFWT			LKNI			RKNI			RKNE			LANE			RANI			LHEE			RHEE			LHUM			LRAD			RRAD			RWRA			LWRB			LFHD			LBHD			RBHD			RSHO			LSHO			CLAV			LCAR			RCAR			
		X1	Y1	Z1	X2	Y2	Z2	X3	Y3	Z3	X4	Y4	Z4	X5	Y5	Z5	X6	Y6	Z6	X7	Y7	Z7	X8	Y8	Z8	X9	Y9	Z9	X10	Y10	Z10	X11	Y11	Z11	X12	Y12	Z12	X13	Y13	Z13	X14	Y14	Z14	X15	Y15	Z15	X16	Y16	Z16	X17	Y17	Z17	X18	Y18	Z18	X19	Y19	Z19	X20	Y20	Z20	X21	Y21	Z21	X22	Y22	Z22	X23	Y23	Z23	X24	Y24	Z24	X25	Y25	Z25	X26	Y26	Z26	X27	Y27	Z27	X28	Y28	Z28	X29	Y29	Z29	X30	Y30	Z30	X31	Y31	Z31	X32	Y32	Z32	X33	Y33	Z33	X34	Y34	Z34	X35	Y35	Z35	X36	Y36	Z36	

1415	11.78333333333333	46.88047790527342	1490.659423828125	133.685073852539	-245.386215209961	259.0057983398438	175.7425994873046	-218.1266784667969	1279.215209960938	28.22305107116689	-251.6387023925781	627.1613159179688	-64.82560729980476	-44.84018707275389	986.6644897460938	-123.8506698608399	-373.0048217773438	1518.301025390625	29.03104019165025	-49.39007186889651	1193.278198242188	223.7040252685546	176.4370422363281	1022.962951660156	169.9038543701172	-135.0015106201172	1583.053466796875	17.98697471618641	-402.4678039550781	1222.187866210938	-86.52490997314464	-85.5018844604492	513.0559692382812	-136.0091552734375	-29.36032867431642	194.6759033203125	153.2308807373047	217.5836486816407	1047.593627929688	-158.9218292236328	-591.9391479492188	1202.627319335938	-43.06261062622085	-593.1280517578125	1207.328369140625	79.19070434570298	-419.4066162109375	1223.8798828125	180.3032379150389	-6.784066200256346	954.7335205078125	-17.35803604125982	-180.2599487304688	692.6779174804688	96.76211547851555	-229.7581787109375	727.6182250976562	198.027374267578	-281.0709228515625	627.98193359375	-155.2127838134766	-218.9036102294922	278.7400207519531	90.26944732666011	-355.00146484375	612.6270751953125	-110.7138748168946	-313.9793395996094	229.5006713867188	122.5901947021484	-26.07079505920408	1209.638305664062	-171.300521850586	31.49808883666995	1249.755981445312	-194.0714874267579	6.384554862976042	1241.382202148438	260.5926513671874	207.6502990722656	1055.368286132812	224.0941314697265	179.6541748046875	1021.672973632812	-99.879264831543	64.11125183105469	1444.805786132812	-16.70964431762703	-18.35004997253417	1570.500244140625	-50.72317886352549	-18.53032684326173	1601.5830078125	105.4038772583007	-123.395866394043	1523.216796875	165.2262420654296	-116.9345474243164	1512.860107421875	-112.6753997802736	-111.3578796386719	1421.427856445312	15.5581693649291	291.5072937011719	1038.367553710938	-73.28135681152345	293.960205078125	1020.265380859375	147.2437896728515	
1416	11.79166666666667	46.96348571777342	1490.53955078125	132.7220611572265	-256.951904296875	258.51025390625	175.2588348388671	-218.169189453125	1279.081420898438	27.75137710571278	-242.3300323486328	628.44873046875	-64.43699645996101	-43.21254730224608	992.2586669921875	-122.7155838012696	-372.9967041015625	1518.220336914062	28.48042106628404	-49.6443901062012	1193.232055664062	223.5204010009765	176.2976531982422	1022.952575683594	169.7481231689453	-134.9310760498047	1582.921264648438	17.2486171722411	-402.6355895996094	1222.33251953125	-86.54095458984386	-73.45664978027342	518.8453369140625	-135.3904876708985	-41.94152450561526	190.4745941162109	153.321044921875	217.2992706298828	1047.585693359375	-159.1502532958985	-592.0433349609375	1202.584716796875	-43.4611968994142	-593.2522583007812	1207.288208007812	78.81925964355455	-419.6103515625	1223.8154296875	180.2095642089842	-4.851890087127684	960.3353271484375	-16.87541198730475	-182.4617309570312	690.9147338867188	97.17874145507805	-232.0107116699219	726.45703125	198.1029052734374	-271.2918701171875	628.2650756835938	-155.1862792968751	-229.0704650878906	277.8601379394531	89.89206695556636	-345.1741333007812	610.7725830078125	-110.9112167358399	-325.8293151855469	230.2221069335938	121.9219360351562	-26.45982742309568	1209.401245117188	-171.5565032958985	31.09732246398928	1249.505493164062	-194.4707183837891	6.183334350585906	1241.356079101562	260.3197937011718	207.4837646484375	1055.415771484375	223.8977966308593	179.5381927490234	1021.70654296875	-100.0291748046875	64.00475311279297	1444.514892578125	-17.67228698730477	-18.31991386413574	1570.270141601562	-51.71056365966807	-18.34716987609865	1601.545654296875	104.4244232177733	-123.3040008544922	1523.151000976562	164.4660339355468	-117.0716018676758	1512.7587890625	-113.5119705200196	-111.3982009887695	1421.319458007812	14.85128974914541	291.3974914550781	1038.372192382812	-73.54204559326173	293.8170776367188	1020.411254882812	147.0340118408203	
1417	11.8	47.12223052978514	1490.39501953125	131.8336639404296	-268.3106384277344	259.1947326660156	174.7494659423828	-218.2416076660156	1279.021484375	27.25377655029286	-233.3559875488281	628.5745239257812	-64.1418533325196	-41.98323440551756	996.9312744140625	-121.727638244629	-372.9936828613281	1518.124755859375	27.95777130126939	-49.88674545288089	1193.1689453125	223.333023071289	176.1616821289062	1022.946228027344	169.5586700439453	-134.8444519042969	1582.755859375	16.53569984436024	-402.7946166992188	1222.480224609375	-86.64347076416027	-59.40719985961913	524.0404052734375	-134.8317413330078	-54.55081939697268	187.1502227783203	153.2697601318359	217.0731658935547	1047.557983398438	-159.3970794677735	-592.2852783203125	1202.55078125	-43.78978729248061	-593.5272827148438	1207.256713867188	78.4716644287108	-419.9468688964844	1223.810791015625	180.1671142578124	-3.111175060272215	966.0416870117188	-15.40424537658697	-183.4903411865234	689.9082641601562	97.61507415771477	-233.2098541259766	726.0209350585938	198.1925659179687	-261.4273986816406	627.4047241210938	-155.1822967529297	-239.7421875	277.8944396972656	89.45230865478511	-335.1468200683594	607.7255859375	-111.1567840576173	-337.5536804199219	232.15478515625	121.2762374877929	-26.8401470184326	1209.252319335938	-171.8324127197266	30.68823623657229	1249.304565429688	-194.8927764892579	5.95587110519406	1241.308349609375	260.0259704589843	207.3004760742187	1055.426879882812	223.6917114257812	179.4133148193359	1021.724365234375	-100.1952590942383	63.83781433105469	1444.209594726562	-18.59107017517098	-18.37688064575195	1570.005126953125	-52.47214126586924	-18.13450241088869	1601.470947265625	103.5025024414062	-123.2943878173828	1523.06201171875	163.818145751953	-117.1732330322265	1512.6611328125	-114.2701110839845	-111.4452438354492	1421.211303710938	14.27367305755605	291.3020935058594	1038.375	-73.80510711669923	293.86083984375	1020.726928710938	146.8068237304687	
1418	11.80833333333333	47.24275970458983	1490.29345703125	130.9989624023437	-279.4200134277344	260.9867858886719	174.3054199218749	-218.3344879150391	1278.967163085938	26.76019287109364	-224.6812896728516	627.5416870117188	-64.1816711425782	-41.21848297119139	1000.409484863281	-120.9021606445313	-372.9718017578125	1518.048950195312	27.43274116516099	-50.11631774902347	1193.061279296875	223.0750274658202	176.0516815185547	1022.932495117188	169.3717651367187	-134.7975921630859	1582.61669921875	15.88478088378895	-403.0149841308594	1222.604858398438	-86.74562072753918	-47.853214263916	527.6315307617188	-134.2166137695313	-67.11286926269533	184.6251525878906	153.0790252685547	216.8446350097657	1047.559448242188	-159.6253051757813	-592.6001586914062	1202.525634765625	-44.04349899292006	-593.9146728515625	1207.21826171875	78.16239929199205	-420.3377685546875	1223.878662109375	180.0953521728514	-1.828121066093443	970.080078125	-14.69010257720953	-183.6966857910156	689.7371215820312	98.13669586181634	-234.7657012939453	726.7534790039062	198.5386505126952	-251.6529541015625	625.4154663085938	-155.2670593261719	-250.2232513427734	279.0469360351562	89.06364440917964	-325.0160217285156	603.5844116210938	-111.3871688842774	-349.0875854492188	235.3551788330078	120.6976776123046	-27.16783332824705	1209.128173828125	-172.0899200439454	30.3341865539551	1249.136596679688	-195.2889709472657	5.725043296813933	1241.240966796875	259.7134399414062	207.1368560791015	1055.44677734375	223.4988708496093	179.2938995361328	1021.783874511719	-100.3413772583008	63.75730514526367	1443.953735351562	-19.44295501708993	-18.43602561950683	1569.735473632812	-53.34590911865244	-18.02145004272462	1601.419311523438	102.7323760986327	-123.3190841674805	1522.948486328125	163.1847076416014	-117.3572998046875	1512.580444335938	-114.9210357666017	-111.5123519897461	1421.182006835938	13.72481346130361	291.2216186523438	1038.358154296875	-74.00518035888673	293.7649841308594	1020.857727050781	146.653335571289	
1419	11.81666666666667	47.41226959228514	1490.2080078125	130.262466430664	-290.079345703125	263.8405456542969	173.8493041992187	-218.5216979980469	1278.938720703125	26.34499549865712	-214.3142395019531	624.0804443359375	-64.67325592041023	-40.74496459960936	1002.720642089844	-120.3316497802735	-372.9939575195312	1517.994262695312	26.90468406677232	-50.33194732666018	1192.935302734375	222.7445068359374	175.9640197753906	1022.851440429688	169.1906433105468	-134.7546691894531	1582.453735351562	15.30271148681629	-403.2768249511719	1222.69580078125	-86.83381652832043	-36.83548736572264	530.4098510742188	-133.8839569091797	-79.58329010009767	183.0717315673828	153.0062255859375	216.6981353759766	1047.5908203125	-159.7902526855469	-592.9341430664062	1202.489990234375	-44.23766708374038	-594.3395385742188	1207.15673828125	77.94696807861314	-420.835693359375	1224.011474609375	179.9864959716795	-0.825966000556944	972.8482055664062	-14.24506473541266	-183.0477142333984	690.3009033203125	98.60540008544915	-234.2897491455078	727.6881103515625	198.7838439941405	-241.8801116943359	622.22705078125	-155.4043121337891	-260.3984069824219	281.1432189941406	88.7060165405273	-314.8652648925781	598.10009765625	-111.7147903442384	-360.2919921875	239.7637634277344	120.1958847045898	-27.4515800476074	1208.993408203125	-172.4308013916016	30.11465454101565	1248.992919921875	-195.6439971923829	5.459052085876433	1241.162475585938	259.4590148925781	207.0135498046875	1055.481689453125	223.3189392089843	179.1998291015625	1021.869812011719	-100.470443725586	63.58901214599609	1443.72216796875	-20.20625877380379	-18.55784225463866	1569.450561523438	-53.96741485595713	-17.87038040161134	1601.358276367188	101.9793090820312	-123.3664321899414	1522.772094726562	162.6249999999999	-117.4780807495117	1512.495727539062	-115.5191345214845	-111.6419067382812	1420.954467773438	13.25100994110097	291.1662902832031	1038.3486328125	-74.18848419189455	293.6876220703125	1020.948364257812	146.5307159423828	
